# xmcd
#
# Track frame offsets:
#	150
#	14247
#	30394
#	48155
#	67186
#	84140
#	99253
#	125067
#	139413
#	157466
#
# Disc length: 2268 seconds
#
# Revision: 1
# Processed by: cddbd v1.5.2PL0 Copyright (c) Steve Scherf et al.
# Submitted via: audiograbber 1.83.01
#
DISCID=8b08da0a
DTITLE=Tom Cat Playground - Shufflin'  For A Quid
DYEAR=2017
DGENRE=blues
TTITLE0=That Kinda Feeling
TTITLE1=Sucker For Your Love
TTITLE2=Enchilada Soup
TTITLE3=Stay With Me
TTITLE4=Silent But Deadly
TTITLE5=Trouble
TTITLE6=Frontline
TTITLE7=Sen-Sa-Shun
TTITLE8=Leave Me Alone
TTITLE9=Easy ( A Tribute To Big Walter Horton)
EXTD=
EXTT0=
EXTT1=
EXTT2=
EXTT3=
EXTT4=
EXTT5=
EXTT6=
EXTT7=
EXTT8=
EXTT9=
PLAYORDER=
